
<svg width="96" height="24" viewBox="0 0 96 24" fill="none" xmlns="http://www.w3.org/2000/svg">
<g clip-path="url(#clip0_856_2036)">
<path d="M24.1305 17.8496L29.2785 6.29961H33.321L38.469 17.8496H35.0205L33.9645 15.3746H28.569L27.4965 17.8496H24.1305ZM29.592 12.9986H32.9415L31.275 9.08811L29.592 12.9986ZM44.4151 21.4796C40.9006 21.4796 39.0856 20.6381 39.0856 19.0376C39.0856 18.3941 39.3991 17.8331 39.9436 17.3381C39.3991 16.9256 39.1021 16.3481 39.1021 15.6551C39.1021 14.7146 39.6301 13.9556 40.5211 13.6421C39.9931 13.2131 39.7291 12.6521 39.7291 11.9591C39.7291 10.1111 41.4946 9.12111 44.8606 9.12111C45.6361 9.12111 46.3291 9.17061 46.9231 9.26961C47.1541 7.32261 48.0781 6.54711 50.1076 6.54711H50.5531V8.98911H50.1076C49.2826 8.98911 48.8866 9.22011 48.7711 9.89661C49.5466 10.3751 49.9426 11.0516 49.9426 11.9426C49.9426 13.7576 48.2431 14.6981 44.9926 14.6981H44.8936L42.3526 14.6816C41.8906 14.6816 41.6431 14.8301 41.6431 15.1106C41.6431 15.3746 41.8741 15.5066 42.3031 15.5066H46.2796C49.4476 15.5066 50.7346 16.2821 50.7346 18.1301C50.7346 20.4236 48.7381 21.4796 44.4151 21.4796ZM42.1546 18.6086C42.1546 19.1861 42.8971 19.4006 44.7781 19.4006C46.7911 19.4006 47.5501 19.1861 47.5501 18.6416C47.5501 18.1796 47.0551 17.9981 46.0981 17.9981H42.4186C42.2206 18.2126 42.1546 18.4271 42.1546 18.6086ZM42.7981 11.9096C42.7981 12.4211 43.4581 12.6356 44.8441 12.6356C46.2301 12.6356 46.8736 12.4211 46.8736 11.9096C46.8736 11.3981 46.2301 11.1836 44.8276 11.1836C43.4416 11.1836 42.7981 11.3981 42.7981 11.9096ZM56.1475 18.1796C52.963 18.1796 50.8345 16.4636 50.8345 13.6586C50.8345 10.9031 52.864 9.12111 56.0485 9.12111C59.6785 9.12111 61.675 11.2166 61.1305 14.4671H53.986C54.151 15.4241 55.0255 15.9521 56.1805 15.9521C57.088 15.9521 57.8965 15.5891 58.1605 14.9291L61.0315 15.1106C60.7675 16.9916 58.8535 18.1796 56.1475 18.1796ZM54.0025 12.2726H58.0615C57.9295 11.5466 57.1375 11.1341 56.0815 11.1341C54.976 11.1341 54.184 11.5466 54.0025 12.2726ZM62.3451 17.8496V6.29961H65.6451V10.9856L70.5951 6.29961H74.6211L69.6216 10.9856L74.7861 17.8496H70.6281L67.2621 13.1966L65.6451 14.7146V17.8496H62.3451ZM79.7212 18.1796C76.5367 18.1796 74.4082 16.4636 74.4082 13.6586C74.4082 10.9031 76.4377 9.12111 79.6222 9.12111C83.2522 9.12111 85.2487 11.2166 84.7042 14.4671H77.5597C77.7247 15.4241 78.5992 15.9521 79.7542 15.9521C80.6617 15.9521 81.4702 15.5891 81.7342 14.9291L84.6052 15.1106C84.3412 16.9916 82.4272 18.1796 79.7212 18.1796ZM77.5762 12.2726H81.6352C81.5032 11.5466 80.7112 11.1341 79.6552 11.1341C78.5497 11.1341 77.7577 11.5466 77.5762 12.2726ZM85.1623 21.4301V19.1366H87.0598C88.1323 19.1366 88.6603 18.8396 89.0563 18.0146L84.5353 9.45111H87.9838L90.5413 14.6981L92.8678 9.45111H95.8873L92.0263 18.0311C90.9208 20.5556 89.6503 21.4301 87.1918 21.4301H85.1623Z" fill="white"/>
<path d="M15.3268 17.3177C17.0403 17.321 18.7163 16.8156 20.1424 15.8654C21.5685 14.9152 22.6806 13.5631 23.3379 11.9802C23.9951 10.3973 24.168 8.65491 23.8345 6.97371C23.501 5.2925 22.6762 3.74809 21.4646 2.53612C20.253 1.32416 18.709 0.499129 17.0283 0.165562C15.3475 -0.168004 13.6056 0.00488711 12.0232 0.662332C10.4407 1.31978 9.08896 2.43222 8.13906 3.85872C7.18916 5.28522 6.68386 6.96165 6.68718 8.67563C6.68777 9.57194 6.82552 10.4629 7.09566 11.3175L0.347141 18.0502C0.236686 18.1591 0.149097 18.2889 0.0895202 18.4321C0.0299434 18.5754 -0.000420042 18.729 0.000213475 18.8842L0.000213475 22.8022C-0.00277296 22.9589 0.0256015 23.1146 0.0836675 23.2602C0.141733 23.4057 0.228318 23.5382 0.338328 23.6498C0.448338 23.7614 0.579551 23.8499 0.724248 23.91C0.868944 23.9702 1.0242 24.0008 1.18089 24H5.09782C5.25307 24.0007 5.40694 23.9707 5.55052 23.9116C5.6941 23.8525 5.82455 23.7655 5.93433 23.6557C6.04412 23.5459 6.13105 23.4154 6.19013 23.2718C6.2492 23.1282 6.27923 22.9743 6.27849 22.819V20.8544H8.24815C8.56083 20.8529 8.86028 20.728 9.08138 20.5068C9.30248 20.2857 9.42735 19.9861 9.42882 19.6734V17.7031H11.3929C11.548 17.7038 11.7016 17.6734 11.8448 17.6138C11.9879 17.5542 12.1178 17.4666 12.2266 17.3561L12.6857 16.9091C13.5401 17.1793 14.4307 17.3171 15.3268 17.3177Z" fill="white"/>
<path d="M11.352 12.0204V7.66439L10.866 7.79039C10.794 7.80839 10.695 7.82639 10.623 7.82639C10.299 7.82639 10.02 7.55639 10.02 7.23239C10.02 6.95339 10.2 6.71939 10.479 6.63839L11.37 6.37739C11.631 6.30539 11.829 6.26039 12.018 6.26039H12.036C12.414 6.26039 12.72 6.56639 12.72 6.94439V12.0204C12.72 12.3984 12.414 12.7044 12.036 12.7044C11.658 12.7044 11.352 12.3984 11.352 12.0204ZM15.9319 12.7404C14.5369 12.7404 13.5019 12.0204 13.5019 10.9224V10.9044C13.5019 10.1394 13.8529 9.68939 14.5189 9.38339C14.0329 9.08639 13.7179 8.68139 13.7179 8.00639V7.98839C13.7179 7.02539 14.5999 6.26039 15.9319 6.26039C17.2639 6.26039 18.1459 7.01639 18.1459 7.98839V8.00639C18.1459 8.68139 17.8309 9.08639 17.3449 9.38339C17.9839 9.71639 18.3619 10.1214 18.3619 10.8684V10.8864C18.3619 12.0564 17.3269 12.7404 15.9319 12.7404ZM15.9319 8.92439C16.4809 8.92439 16.8319 8.60039 16.8319 8.15939V8.14139C16.8319 7.75439 16.4989 7.40339 15.9319 7.40339C15.3649 7.40339 15.0319 7.74539 15.0319 8.13239V8.15039C15.0319 8.59139 15.3829 8.92439 15.9319 8.92439ZM15.9319 11.5974C16.6159 11.5974 17.0209 11.2554 17.0209 10.8144V10.7964C17.0209 10.3104 16.5619 10.0224 15.9319 10.0224C15.3019 10.0224 14.8429 10.3104 14.8429 10.7964V10.8144C14.8429 11.2464 15.2479 11.5974 15.9319 11.5974Z" fill="#392669"/>
<path d="M18.891 6.488V5.453H17.829C17.487 5.453 17.208 5.174 17.208 4.832C17.208 4.49 17.487 4.211 17.829 4.211H18.891V3.176C18.891 2.825 19.179 2.537 19.53 2.537C19.881 2.537 20.169 2.825 20.169 3.176V4.211H21.231C21.573 4.211 21.852 4.49 21.852 4.832C21.852 5.174 21.573 5.453 21.231 5.453H20.169V6.488C20.169 6.839 19.881 7.127 19.53 7.127C19.179 7.127 18.891 6.839 18.891 6.488Z" fill="#392669"/>
</g>
<defs>
<clipPath id="clip0_856_2036">
<rect width="96" height="24" fill="white"/>
</clipPath>
</defs>
</svg>
